<svg id="Calque_1" data-name="Calque 1" xmlns="http://www.w3.org/2000/svg" xmlns:xlink="http://www.w3.org/1999/xlink" viewBox="0 0 500 500"><defs><style>.cls-1{fill:#fff;}.cls-2{fill:#f47b20;}.cls-3{fill:#f42061;}.cls-4{fill:#404040;}</style><symbol id="Calendar" data-name="Calendar" viewBox="0 0 889.66 922.88"><rect class="cls-1" x="187.67" y="29.82" width="95.56" height="152.11"/><rect class="cls-1" x="611.81" y="31.73" width="96.87" height="150.21"/><rect class="cls-1" x="34.5" y="334.64" width="828.65" height="551.58"/><polygon class="cls-2" points="495.13 610.95 533.51 572.57 479.23 572.57 479.23 595.05 495.13 610.95"/><polygon class="cls-2" points="440.85 556.66 456.75 572.57 479.23 572.57 479.23 518.28 440.85 556.66"/><polygon class="cls-2" points="479.23 649.33 456.75 649.33 440.85 665.24 479.23 703.62 479.23 649.33"/><polygon class="cls-2" points="495.13 610.95 479.23 626.85 479.23 649.33 533.51 649.33 495.13 610.95"/><polygon class="cls-2" points="402.46 572.57 348.18 572.57 386.56 610.95 402.46 595.05 402.46 572.57"/><polygon class="cls-2" points="402.46 518.28 402.46 572.57 424.95 572.57 440.85 556.66 402.46 518.28"/><polygon class="cls-2" points="348.18 649.33 402.46 649.33 402.46 626.85 386.56 610.95 348.18 649.33"/><polygon class="cls-2" points="402.46 703.62 440.85 665.24 424.95 649.33 402.46 649.33 402.46 703.62"/><path class="cls-2" d="M627.14,451.8,600,424.66a19.18,19.18,0,0,0-27.14,0l-93.63,93.62v54.29h54.28l93.63-93.63A19.19,19.19,0,0,0,627.14,451.8Z"/><polygon class="cls-2" points="479.23 595.05 479.23 572.57 456.75 572.57 479.23 595.05"/><polygon class="cls-2" points="456.75 649.33 479.23 649.33 479.23 626.85 456.75 649.33"/><path class="cls-2" d="M533.51,649.33H479.23v54.29l93.63,93.62a19.18,19.18,0,0,0,27.14,0l27.14-27.14a19.19,19.19,0,0,0,0-27.14Z"/><polygon class="cls-2" points="424.95 572.57 402.46 572.57 402.46 595.05 424.95 572.57"/><path class="cls-2" d="M348.18,572.57h54.28V518.28l-93.62-93.62a19.18,19.18,0,0,0-27.14,0L254.56,451.8a19.18,19.18,0,0,0,0,27.14Z"/><path class="cls-2" d="M254.56,743a19.18,19.18,0,0,0,0,27.14l27.14,27.14a19.18,19.18,0,0,0,27.14,0l93.62-93.62V649.33H348.18Z"/><polygon class="cls-2" points="402.46 626.85 402.46 649.33 424.95 649.33 402.46 626.85"/><polygon class="cls-2" points="479.23 626.85 495.13 610.95 479.23 595.05 479.23 626.85"/><path class="cls-2" d="M626.24,572.57H533.51L495.13,611l38.38,38.38h92.73a19.19,19.19,0,0,0,19.19-19.19V591.76A19.19,19.19,0,0,0,626.24,572.57Z"/><polygon class="cls-2" points="402.46 595.05 386.56 610.95 402.46 626.85 402.46 595.05"/><path class="cls-2" d="M348.18,649.33,386.56,611l-38.38-38.38H255.46a19.19,19.19,0,0,0-19.19,19.19v38.38a19.19,19.19,0,0,0,19.19,19.19Z"/><path class="cls-2" d="M479.23,425.56A19.19,19.19,0,0,0,460,406.37H421.66a19.2,19.2,0,0,0-19.2,19.19v92.72l38.39,38.38,38.38-38.38Z"/><polygon class="cls-2" points="456.75 572.57 440.85 556.66 424.95 572.57 456.75 572.57"/><polygon class="cls-2" points="424.95 649.33 440.85 665.24 456.75 649.33 424.95 649.33"/><path class="cls-2" d="M440.85,665.23l-38.39,38.39v92.72a19.2,19.2,0,0,0,19.2,19.19H460a19.19,19.19,0,0,0,19.19-19.19V703.62Z"/><polygon class="cls-3" points="853.99 320.69 39.74 320.69 39.74 129.57 177.85 129.57 185.05 187.17 284.54 186.51 293.05 129.57 593.49 129.57 613.12 186.51 702.14 182.59 717.19 129.57 853.99 129.57 853.99 320.69"/><path class="cls-4" d="M805.08,100.07H733.92V38.92C733.92,14.45,710.57,0,686.11,0h-65.6c-24.46,0-42.25,14.45-42.25,38.92v61.15H311.4V38.92C311.4,14.45,293.61,0,269.15,0h-65.6c-24.47,0-47.82,14.45-47.82,38.92v61.15H84.57A82.28,82.28,0,0,0,0,180c0,1.88,0,3.77,0,5.66V828.37c0,48.92,35.58,94.51,84.5,94.51H805.08c48.93,0,84.51-45.59,84.51-94.51V185.69a82.28,82.28,0,0,0-78.85-85.58C808.86,100,807,100,805.08,100.07ZM620.51,44.48h68.94v122.3H620.51Zm-417,0h63.37v122.3H203.55Zm-119,100.07h71.16V169c0,24.46,23.35,42.25,47.82,42.25h65.6a41.14,41.14,0,0,0,42.25-40q0-1.12,0-2.25V144.55H578.26V169a41.13,41.13,0,0,0,40,42.25c.76,0,1.51,0,2.26,0h65.6c24.46,0,47.81-17.79,47.81-42.25V144.55h71.16a37.8,37.8,0,0,1,40.11,35.35,37.32,37.32,0,0,1-.08,5.79V311.33H44.54V185.69a37.8,37.8,0,0,1,34.24-41.06A37.32,37.32,0,0,1,84.57,144.55ZM805.08,878.4H84.57c-24.46,0-40-25.57-40-50V355.81H845.11V828.37C845.11,852.83,829.55,878.4,805.08,878.4Z"/></symbol></defs><title>Event</title><use width="889.66" height="922.88" transform="translate(8.95) scale(0.54 0.54)" xlink:href="#Calendar"/></svg>