<svg id="Calque_1" data-name="Calque 1" xmlns="http://www.w3.org/2000/svg" xmlns:xlink="http://www.w3.org/1999/xlink" viewBox="0 0 500 500"><defs><style>.cls-1{fill:#fff;}.cls-2{fill:#fb5240;}.cls-3{fill:#404040;}.cls-4{fill:#f4cf20;}</style><symbol id="Calendar_6" data-name="Calendar 6" viewBox="0 0 570.74 962.58"><rect class="cls-1" x="19.36" y="191.18" width="530.24" height="750.47" rx="12.11"/><circle class="cls-2" cx="282.87" cy="537.24" r="147.71"/><path class="cls-3" d="M450.18,767.63a14.1,14.1,0,0,0-14.1-14.1H134.67a14.1,14.1,0,1,0,0,28.2H436.08A14.1,14.1,0,0,0,450.18,767.63Z"/><path class="cls-3" d="M179.88,813.81a14.1,14.1,0,1,0,0,28.2h211a14.1,14.1,0,0,0,0-28.2Z"/><rect class="cls-4" x="266.29" y="458.52" width="40.24" height="64.19"/><path class="cls-3" d="M241.13,481.29v15.07a44.24,44.24,0,0,0,88.48,0V481.29a44.24,44.24,0,0,0-88.48,0Zm60.28,0v15.07a16,16,0,0,1-32.08,0V481.29a16,16,0,1,1,32.08,0Z"/><polygon class="cls-2" points="323.31 247.15 231.47 258.06 106.64 14.86 198.36 14.86 323.31 247.15"/><polygon class="cls-2" points="266.29 203.25 338.47 244.92 468.34 14.86 372.85 14.86 266.29 203.25"/><rect class="cls-4" x="213.51" y="258.06" width="143.7" height="50.87"/><rect class="cls-4" x="214.98" y="585.81" width="143.7" height="99.14"/><path class="cls-3" d="M224.12,616.93a31.15,31.15,0,0,1,31.11-31.12h60.28a31.15,31.15,0,0,1,31.11,31.12V663.7a136.89,136.89,0,0,1-122.51,0V616.93ZM380.24,423.62a14.11,14.11,0,0,0-4-19.55C311.27,361,224,369.83,168.84,425c-64.26,64.26-64.26,168.81,0,233.07a164.81,164.81,0,0,0,233.07,0c55.2-55.2,64-142.44,21-207.43a14.1,14.1,0,1,0-23.51,15.57C435,520.1,427.72,592.41,382,638.16c-2.31,2.31-4.71,4.49-7.15,6.61V616.93a59.37,59.37,0,0,0-59.31-59.31H255.23a59.38,59.38,0,0,0-59.31,59.31v27.84c-2.44-2.12-4.83-4.3-7.14-6.61-53.26-53.26-53.26-139.92,0-193.19,45.76-45.75,118.06-53.07,171.92-17.38A14.11,14.11,0,0,0,380.24,423.62Z"/><path class="cls-3" d="M330.58,301.41H240.16a16,16,0,1,1,0-32.08h90.43a16,16,0,0,1,0,32.08ZM511.43,180.85H388.6L478.51,21A14.1,14.1,0,1,0,453.93,7.19L330.58,226.47l-29-51.62L388.08,21A14.1,14.1,0,1,0,363.51,7.19L285.37,146.1,207.24,7.19A14.1,14.1,0,1,0,182.66,21L306.48,241.13H248.41L116.81,7.19A14.1,14.1,0,1,0,92.24,21L219.07,246.49a44.23,44.23,0,0,0,21.09,83.12h90.42a44.24,44.24,0,0,0,21.1-83.12l21.06-37.44H511.43a31.14,31.14,0,0,1,31.11,31.11v663.1a31.14,31.14,0,0,1-31.11,31.11H59.31A31.14,31.14,0,0,1,28.2,903.26V240.16a31.14,31.14,0,0,1,31.11-31.11H126.5a14.1,14.1,0,0,0,0-28.2H59.31A59.38,59.38,0,0,0,0,240.16v663.1a59.38,59.38,0,0,0,59.31,59.31H511.43a59.38,59.38,0,0,0,59.31-59.31V240.16A59.38,59.38,0,0,0,511.43,180.85Z"/></symbol></defs><title>Media</title><use width="570.74" height="962.57" transform="translate(101.61) scale(0.52 0.52)" xlink:href="#Calendar_6"/></svg>