<svg id="Calque_1" data-name="Calque 1" xmlns="http://www.w3.org/2000/svg" xmlns:xlink="http://www.w3.org/1999/xlink" viewBox="0 0 500 500"><defs><style>.cls-1{fill:#f8a512;}.cls-2{fill:#fb5240;}.cls-3{fill:none;stroke:#404040;stroke-linecap:round;stroke-linejoin:round;stroke-width:42px;}.cls-4{font-size:451.08px;fill:#fff;font-family:JosefinSans-Bold, Josefin Sans;font-weight:700;}</style><symbol id="Calendar_2" data-name="Calendar 2" viewBox="0 0 781.6 909.65"><path class="cls-1" d="M760.6,888.65H33V349.39c20.55-12.86,76.79-51.78,108.22-127.58C175.77,138.43,158,64.38,151.67,42a244.38,244.38,0,0,1,85.53,0c76,13.86,87.66,55.48,141.38,55.84,49.87.33,54-35.43,135.38-55.84,48.45-12.14,83.91-21,109-3.51C677.12,76.39,604.59,182.88,670,279.6,698.48,321.69,760.6,373,760.6,373h0Z"/><path class="cls-2" d="M385.8,293.61a285.62,285.62,0,0,1-83.78-76C250.42,147.26,246.51,72.79,246.53,44A297.77,297.77,0,0,0,384.05,81.48,298.52,298.52,0,0,0,535.44,44c1.48,22,4.37,103.8-53.07,176.21C448.62,262.7,408.47,283.83,385.8,293.61Z"/><path class="cls-3" d="M535.44,21,643.65,42.76c-2.82,17.58-33.13,221.94,76.8,292.74a142.37,142.37,0,0,0,40.15,17.67V888.65H21V353.17A142.37,142.37,0,0,0,61.15,335.5C171.08,264.7,140.77,60.34,138,42.76L246.16,21c6.8,7.84,64.16,71.74,155.35,66.64C480.18,83.25,527.1,30.67,535.44,21Z"/><path class="cls-3" d="M246.16,21c-1.35,161.28,79.13,271.4,139.64,272.61C446.88,294.83,533.24,186,535.44,21"/><text class="cls-4" transform="translate(165.11 755.04)">01</text></symbol></defs><title>Participants</title><use width="781.6" height="909.65" transform="translate(35.2 0) scale(0.55 0.55)" xlink:href="#Calendar_2"/></svg>