<svg id="Calque_1" data-name="Calque 1" xmlns="http://www.w3.org/2000/svg" xmlns:xlink="http://www.w3.org/1999/xlink" viewBox="0 0 500 500"><defs><style>.cls-1{fill:#f8a512;}.cls-2{fill:#fff;}.cls-3{fill:#404040;}</style><symbol id="Calendar_3" data-name="Calendar 3" viewBox="0 0 891.69 539.27"><path class="cls-1" d="M346.29,58.54,559.49,45S721.21,23.56,763.43,41.9c50.28,21.84,124.83,144.83,113,172.8-12.32,29.16-51.56,20.24-85.53,68.07-18.57,26.15-24.59,53.8-26.85,72.22L545.26,488.87a21.28,21.28,0,0,1-29.19-7L299.23,127.47C301.58,117.74,344,68.26,346.29,58.54Z"/><path class="cls-2" d="M408.06,528.87,120.31,350.12c-.86-15.68-4.69-38.59-20-59.09C91.93,279.85,83.58,274,68.87,263.11c-15.57-11.51-38-28.43-65.52-50.36L127.43,13a383.4,383.4,0,0,0,109,35.4c40.58,6.7,92.73,5.76,118.69,3.09-1.88,24.57-20.82,49.14-22.69,73.71L643.13,315.47c2,9.16,3,21.44-3.49,31.42-6.7,10.3-16.35,10.45-20.95,19.2-3.49,6.63-4,18.15,9.47,39.52L603,446.13l-59.34,52.61c-40.85-25.66-57.9-24.53-65.9-18.63-10.76,7.94-5.47,24.73-17.88,37.83C447,531.54,424.53,531.15,408.06,528.87Z"/><path class="cls-3" d="M882.28,175.07l-25.73-44.56a13.07,13.07,0,1,0-22.64,13.07l25.73,44.56c10.32,17.88,5.61,31.06-5.5,37.35l-6,3.44c-1.58,1,6.44-3.68-48.91,28.22-18.59,10.72-30.64,29.38-33.87,39.73-19.38,61.78-8.63,48.29-119,111.92a51.78,51.78,0,0,0-14-40.17C667.86,350,669.31,299,634,278.7l-162-93.57,26.75-15.44a13.07,13.07,0,0,0-4.87-24.29c-.45-.06-119.23-15.28-119.68-15.32-37.65-3.65-34.67-48.27-4.31-51.87,203.06-22.76,189.09-21.89,205.09-21.1A13.07,13.07,0,0,0,576.21,31c-19.31-.94-13.37-.73-130.4,12.39C327.33,30.11,335.87,30.77,324.86,30.77c-40.9,0-67.76,14.84-80.9,14.85-15.68,0-37.22-13-51.06-21C164.44,8,166,9.14,166,9.14,134.38-9.13,107.74,2.65,97.16,21.19c-44.65,79.09-39,69.51-87.84,153.88-19.16,33.2-6.14,61.07,15.13,73.09h0s-.45-.22,54.83,31.64c41.12,23.7,11.25,70,76.12,107.39C428.26,544.46,413.72,539.25,432.5,539.25a51.58,51.58,0,0,0,51.53-51c22,12.72,30.57,19.44,47.42,19.44a51.57,51.57,0,0,0,46.35-29.06c11.4-6.58-4.77,2.6,158.41-91.46,27.72-16,38.85-36.38,43-47.12.24-.63,10.82-34.4,11-35a54.19,54.19,0,0,1,22.09-25.23c52.14-30.05,54.83-31.64,54.83-31.64h0C884.85,238.15,903.39,211.65,882.28,175.07ZM600.35,347.15c-3.6-1.2,9.87,6.31-221.1-127a13.07,13.07,0,1,0-13.07,22.64L607.75,382.21a25.36,25.36,0,0,1-18.52,46.63c-5.41-1.27,13.29,8.91-252.81-144.76a13.07,13.07,0,0,0-13.07,22.64c237.32,137,225.26,128.55,230,136.71,12.95,22-11.9,47.81-34.55,34.73L500.52,467.6h0l-42.24-24.38L296.09,349.59A13.07,13.07,0,1,0,283,372.22l162.19,93.64c22.26,12.85,13.22,47.24-12.71,47.24-9.68,0,7,7.65-264-148.56C148,352.77,140,338.62,136.91,331c-.09-.29-10.72-34.18-10.82-34.47a79.73,79.73,0,0,0-33.76-39.37c-88.18-50.82-18.06-10.4-54.86-31.67-13.76-8.1-14-22.58-5.5-37.35,53.1-92,34.32-59.09,87.86-153.93A18.33,18.33,0,0,1,135.13,26c8.54,0,15.8,4.18,36.34,16.34,66.68,39.51,69.82,32,118.74,18.69,23.31-5.39,35.91-4.76,56.08-2.5C307,80.46,310.65,150,371.41,156.07l15,1.92a13.1,13.1,0,0,0,6.53,11.69C638.67,311.57,623,302,626.8,306,645.06,325.34,624.34,355.5,600.35,347.15Z"/></symbol></defs><title>Partners</title><use width="891.69" height="539.27" transform="translate(0 98.93) scale(0.56 0.56)" xlink:href="#Calendar_3"/></svg>