<svg id="icones_niveau_1" data-name="icones niveau 1" xmlns="http://www.w3.org/2000/svg" xmlns:xlink="http://www.w3.org/1999/xlink" viewBox="0 0 500 500"><defs><style>.cls-1,.cls-3{fill:#404040;}.cls-2{fill:#f47b20;}.cls-3{stroke:#404040;stroke-miterlimit:10;stroke-width:3px;}.cls-4{fill:#f4cf20;}.cls-5{fill:#f42061;}.cls-6{fill:#fff;}</style><symbol id="Nouveau_symbole_2" data-name="Nouveau symbole 2" viewBox="0 0 213.57 197.66"><path class="cls-1" d="M107.3,102.55h.39A50.51,50.51,0,0,0,131,96.94a2.8,2.8,0,0,0,1.27-.65,51.26,51.26,0,0,0,26.67-44.95q0-1.14-.06-2.31c0-.74-.08-1.47-.15-2.17v-.27l0-.06A51.58,51.58,0,0,0,107.74.12h-.45A51,51,0,0,0,56.7,46.61l0,.23c-.07.72-.12,1.45-.15,2.18s-.06,1.56-.06,2.32A51.31,51.31,0,0,0,107.3,102.55ZM104.75,33c-2.06.05-4.08.14-6,.28A27.86,27.86,0,0,0,85,11.72a45.34,45.34,0,0,1,19.75-6Zm-13.58,34c3.36-7.83,7.16-16.65,7.63-28.21,2-.14,3.94-.24,6-.29V96.92a45,45,0,0,1-17.17-4.58C84.06,83.62,87.21,76.3,91.17,67.08ZM79.78,15.2A22.8,22.8,0,0,1,93.2,33.85,99.35,99.35,0,0,0,63,42,45.41,45.41,0,0,1,79.78,15.2ZM62.06,49.42c0-.25,0-.5,0-.75,8.5-4.6,19.22-7.78,31.13-9.25-.58,10.18-4.06,18.28-7.15,25.47-3.32,7.74-6.49,15.1-5.33,23.32A45.44,45.44,0,0,1,62,51.34C62,50.69,62,50.05,62.06,49.42Zm73,38.49c1-8.08-2.09-15.36-5.37-23-3.09-7.17-6.56-15.26-7.15-25.43,11.78,1.49,22.38,4.66,30.78,9.21,0,.25,0,.5,0,.74,0,.64.05,1.28.05,1.93A45.5,45.5,0,0,1,135,87.91ZM117,33.35c-2.19-.16-4.45-.27-6.72-.31V5.75a45.39,45.39,0,0,1,20.27,6.07A27.92,27.92,0,0,0,117,33.35Zm-6.72,5.22c2.22,0,4.44.16,6.63.33.49,11.54,4.28,20.36,7.64,28.18,3.93,9.15,7.05,16.41,3.67,25a45.25,45.25,0,0,1-17.94,4.81Zm12.23-4.68a22.38,22.38,0,0,1,13.2-18.6A45.46,45.46,0,0,1,152.42,42,98.88,98.88,0,0,0,122.52,33.89Z"/><path class="cls-2" d="M123.93,7.19a46.76,46.76,0,0,0-25.46-2l6.65,29.35c3.09-.67,6.19-1.22,9.26-1.64A26.8,26.8,0,0,1,123.93,7.19Z"/><path class="cls-2" d="M103,37.87c-2.84.68-5.64,1.45-8.37,2.32,2.4,11.63.61,21.32-1,29.9C91.78,80.45,90.27,88.67,96.31,97a46.78,46.78,0,0,0,20.26.56Z"/><path class="cls-2" d="M94,37.49q4.13-1.31,8.4-2.32L95.77,5.82A46.72,46.72,0,0,0,74.12,18.39,26.79,26.79,0,0,1,94,37.49Z"/><path class="cls-2" d="M128.74,62.14c-5.13-7-10.91-15-13.77-26.52-3.06.42-6.15,1-9.23,1.63L119.27,97A46.72,46.72,0,0,0,138,87.3C139.76,77.32,134.89,70.6,128.74,62.14Z"/><path class="cls-2" d="M91,69.59C92.5,61.34,94.21,52,92,41.07,79.79,45.28,69,51.29,61.15,58.29a2.54,2.54,0,0,1,0,.29l.21,1.22c.12.65.24,1.3.39,2a47.08,47.08,0,0,0,30.48,34C87.69,87.45,89.22,79.09,91,69.59Z"/><path class="cls-2" d="M152.76,37.82l-.09-.29c-10-2.92-22.2-3.68-34.93-2.25,2.76,10.81,8.31,18.46,13.24,25.23,5.63,7.74,10.58,14.56,10.16,23.91a47,47,0,0,0,12.45-43.49c-.14-.65-.31-1.29-.48-1.93Z"/><path class="cls-2" d="M91.4,38.36C87.29,23.49,73.73,21,71.93,20.77A47.05,47.05,0,0,0,60.77,55C68.75,48.21,79.45,42.45,91.4,38.36Z"/><path class="cls-2" d="M117.13,32.56c12.43-1.41,24.43-.81,34.46,1.8a47.15,47.15,0,0,0-24.69-26A23.81,23.81,0,0,0,117.13,32.56Z"/><path class="cls-3" d="M156.29,40.32c-.16-.72-.34-1.44-.55-2.18s-.4-1.37-.61-2l0-.1h0A49.89,49.89,0,0,0,96.67,2.74l-.15,0h0A49.9,49.9,0,0,0,58.3,57.94h0s0,.07,0,.11q.13,1.05.33,2.1c.13.76.27,1.49.44,2.21A49.88,49.88,0,0,0,118.52,100h0a.8.8,0,0,1,.15,0,49.61,49.61,0,0,0,21-10.48,1.33,1.33,0,0,0,.75-.63A49.84,49.84,0,0,0,156.29,40.32ZM119.27,97l-13.53-59.7c3.08-.67,6.17-1.21,9.23-1.63,2.86,11.5,8.64,19.48,13.77,26.52,6.15,8.46,11,15.18,9.29,25.16A46.72,46.72,0,0,1,119.27,97Zm-23,0c-6-8.32-4.53-16.54-2.61-26.9,1.58-8.58,3.37-18.27,1-29.9,2.73-.87,5.53-1.64,8.37-2.32l13.53,59.68A46.78,46.78,0,0,1,96.31,97Zm8.81-62.44L98.47,5.2a46.76,46.76,0,0,1,25.46,2,26.8,26.8,0,0,0-9.55,25.72C111.31,33.33,108.21,33.88,105.12,34.55Zm-2.69.62q-4.28,1-8.4,2.32a26.79,26.79,0,0,0-19.91-19.1A46.72,46.72,0,0,1,95.77,5.82Zm38.71,49.25c.42-9.35-4.53-16.17-10.16-23.91-4.93-6.77-10.48-14.42-13.24-25.23,12.73-1.43,25-.67,34.93,2.25l.09.29.35,1.18c.17.64.34,1.28.48,1.93A47,47,0,0,1,141.14,84.42Zm10.45-50.06c-10-2.61-22-3.21-34.46-1.8A23.81,23.81,0,0,1,126.9,8.39,47.15,47.15,0,0,1,151.59,34.36ZM71.93,20.77c1.8.26,15.36,2.72,19.47,17.59-12,4.09-22.65,9.85-30.63,16.59A47.05,47.05,0,0,1,71.93,20.77Zm-10.14,41c-.15-.65-.27-1.3-.39-2l-.21-1.22a2.54,2.54,0,0,0,0-.29c7.8-7,18.64-13,30.88-17.22,2.18,11,.47,20.27-1,28.52-1.76,9.5-3.29,17.86,1.29,26.2A47.08,47.08,0,0,1,61.79,61.75Z"/><path class="cls-1" d="M60.87,92.58a2.14,2.14,0,0,0-.42-.06,52.73,52.73,0,1,0-9,104.89,2.9,2.9,0,0,0,1.15.25,3,3,0,0,0,1-.17l.16-.07a52.58,52.58,0,0,0,51.77-51,2.83,2.83,0,0,0,0-.82v-.26c0-.23,0-.45,0-.68A53.06,53.06,0,0,0,60.87,92.58Zm2.38,90.5a65.6,65.6,0,0,0,21.67-4A46.87,46.87,0,0,1,54.6,191.69a70.57,70.57,0,0,1-2.42-9.94A45.25,45.25,0,0,0,63.25,183.08Zm29.62-13.74c-1.78,1-15.2,8-29.75,8a37.89,37.89,0,0,1-11.69-1.74,72.3,72.3,0,0,1,0-11.68c2.47.13,4.78.2,6.87.2,21.66,0,34.19-6,40.75-10.77A46.34,46.34,0,0,1,92.87,169.34ZM31.55,102.78c1,.19,22,4.87,34.2,34.58a61.1,61.1,0,0,1-11.54,4.15C50.57,136,39.34,121.45,17.29,114A47.46,47.46,0,0,1,31.55,102.78ZM99.86,145c-2.55,2.94-13.62,13.39-41.67,13.39-2,0-4,0-6-.15a62.82,62.82,0,0,1,2.78-11,72.33,72.33,0,0,0,39.22-25,46.91,46.91,0,0,1,5.73,22.47C99.87,144.8,99.87,144.9,99.86,145ZM84.48,124.37c-2.07-9-8.41-17.39-13.88-23.21a47.24,47.24,0,0,1,20.3,16A69.31,69.31,0,0,1,84.48,124.37Zm-5.06,4.48a68.69,68.69,0,0,1-8.6,5.87c-9.23-22.23-23-31.47-31.16-35.17A46.58,46.58,0,0,1,59,98.09C62.09,100.64,78.35,114.8,79.42,128.85Zm-56.65-6.54c-9.32,7-14.11,19.26-16.52,28.85a46.86,46.86,0,0,1,7.38-32.41A71.77,71.77,0,0,1,22.77,122.31Zm-13,41.17c0-.29,2.91-29.06,18.74-38.13a69.31,69.31,0,0,1,8.74,6.13c-15.67,16.69-16.82,37.11-16.08,48A47.27,47.27,0,0,1,9.76,163.59S9.77,163.52,9.77,163.48Zm17.69,20.8c-.73-4.26-4.12-29.72,14-49a60.22,60.22,0,0,1,8.15,9.7,75.51,75.51,0,0,0-1.06,46.57A46.77,46.77,0,0,1,27.46,184.28Z"/><path class="cls-4" d="M80.74,123a70.36,70.36,0,0,0,7.61-11.25A48.6,48.6,0,0,0,58.49,96.58C65.3,101.3,77.42,111.11,80.74,123Z"/><path class="cls-4" d="M68.79,134.38a69.21,69.21,0,0,0,9.69-8.76,1.43,1.43,0,0,1-.12-.31c-3-14.92-22.68-27.29-25.62-29.06a50.46,50.46,0,0,0-6.79.48,48.34,48.34,0,0,0-16.68,5.63C36.65,103.72,54.62,109.55,68.79,134.38Z"/><path class="cls-4" d="M54,145.81a63.39,63.39,0,0,0-1.41,13.94c35.9-2.84,46.71-18.46,48.28-21.08,0-.28-.06-.55-.1-.83a48.18,48.18,0,0,0-10.44-23.78C77.69,136.59,58.21,144.36,54,145.81Z"/><path class="cls-4" d="M51.26,145.05A60.47,60.47,0,0,0,39.94,135c-17.74,23.84-8.54,51.4-7.79,53.51a48.07,48.07,0,0,0,25.27,4.43C46.12,169.85,50.25,149.19,51.26,145.05Z"/><path class="cls-4" d="M60.8,161.73c-2.55.36-5.27.65-8.12.87a74.54,74.54,0,0,0,1.94,14.12c21,4.19,42.17-12.14,42.38-12.31l.09,0a48.18,48.18,0,0,0,4.16-21.32C96.86,148.37,85.63,158.18,60.8,161.73Z"/><path class="cls-4" d="M53.3,143a62,62,0,0,0,13.17-7C49.32,105.8,26.05,104.8,25.82,104.79a1.3,1.3,0,0,1-.34-.08A48.84,48.84,0,0,0,11,120.34C36.31,124.42,50.2,139.34,53.3,143Z"/><path class="cls-4" d="M68.37,179.8a42.68,42.68,0,0,1-13,0,72.73,72.73,0,0,0,5,12.79,48.4,48.4,0,0,0,33.87-22.81C88.94,173.11,79.35,178.23,68.37,179.8Z"/><path class="cls-4" d="M37.56,133.42a69.8,69.8,0,0,0-11.78-6c-15.67,11.32-14.37,41.79-14.35,42.1a1.49,1.49,0,0,1,0,.36,48.69,48.69,0,0,0,17.23,16.82C26.37,178.39,21.94,154.52,37.56,133.42Z"/><path class="cls-4" d="M22.64,126.2A71.38,71.38,0,0,0,9.52,123a48.23,48.23,0,0,0-.94,41.47C8.88,155.24,11,136,22.64,126.2Z"/><path class="cls-3" d="M103.73,138.45c0-.34-.07-.68-.12-1a51.39,51.39,0,0,0-50.31-44,1.9,1.9,0,0,0-.34,0,50.26,50.26,0,0,0-7.41.51A51.31,51.31,0,0,0,59.11,195.62a1.49,1.49,0,0,0,.81.12,1.36,1.36,0,0,0,.47-.15,1.18,1.18,0,0,0,.21-.18A51.36,51.36,0,0,0,103.8,139,1.41,1.41,0,0,0,103.73,138.45Zm-6.64,25.92-.09,0c-.21.17-21.41,16.5-42.38,12.31a74.54,74.54,0,0,1-1.94-14.12c2.85-.22,5.57-.51,8.12-.87,24.83-3.55,36.06-13.36,40.45-18.68A48.18,48.18,0,0,1,97.09,164.37ZM32.15,188.51c-.75-2.11-9.95-29.67,7.79-53.51a60.47,60.47,0,0,1,11.32,10.05c-1,4.14-5.14,24.8,6.16,47.89A48.07,48.07,0,0,1,32.15,188.51Zm68.74-49.84c-1.57,2.62-12.38,18.24-48.28,21.08A63.39,63.39,0,0,1,54,145.81c4.19-1.45,23.67-9.22,36.33-31.75a48.18,48.18,0,0,1,10.44,23.78C100.83,138.12,100.85,138.39,100.89,138.67ZM88.35,111.79A70.36,70.36,0,0,1,80.74,123C77.42,111.11,65.3,101.3,58.49,96.58A48.6,48.6,0,0,1,88.35,111.79ZM52.74,96.25c2.94,1.77,22.6,14.14,25.62,29.06a1.43,1.43,0,0,0,.12.31,69.21,69.21,0,0,1-9.69,8.76c-14.17-24.83-32.14-30.66-39.52-32A48.34,48.34,0,0,1,46,96.73,50.46,50.46,0,0,1,52.74,96.25Zm-27.26,8.46a1.3,1.3,0,0,0,.34.08c.23,0,23.5,1,40.65,31.26a62,62,0,0,1-13.17,7c-3.1-3.69-17-18.61-42.34-22.69A48.84,48.84,0,0,1,25.48,104.71ZM9.52,123a71.38,71.38,0,0,1,13.12,3.2C11,136,8.88,155.24,8.58,164.47A48.23,48.23,0,0,1,9.52,123Zm1.86,46.83a1.49,1.49,0,0,0,0-.36c0-.31-1.32-30.78,14.35-42.1a69.8,69.8,0,0,1,11.78,6c-15.62,21.1-11.19,45-9,53.23A48.69,48.69,0,0,1,11.38,169.83Zm49,22.72a72.73,72.73,0,0,1-5-12.79,42.68,42.68,0,0,0,13,0c11-1.57,20.57-6.69,25.92-10.06A48.4,48.4,0,0,1,60.42,192.55Z"/><path class="cls-1" d="M161.67,196.6A51.49,51.49,0,0,0,202.19,177a2.84,2.84,0,0,0,.46-.24,2.77,2.77,0,0,0,1.2-2A51.73,51.73,0,0,0,178.07,95.7a2.77,2.77,0,0,0-2.16-.67A51.78,51.78,0,1,0,161.67,196.6Zm13.84-7.72A45.82,45.82,0,0,1,161.67,191c-.87,0-1.76,0-2.66-.08Zm-16.37-3.62-5.78-9.33,5.6-8,18.14.19,5.23,5.8-6.81,9.31Zm17.25-22.74-16.75-.17-4.25-15.13,13.12-9.53H169l13.51,8.05ZM132.66,144l17.25,4.41,4.55,16.2-5.69,8.11-15.4-3.19L125.25,153Zm-13.23,9.58a2.85,2.85,0,0,0,.24.75L128.36,172l-1.43,3.16a46.38,46.38,0,0,1-10.87-23.08Zm11.71,25.86,1.94-4.26,15.18,3.16,5.78,9.33-2.62,2.18A46.13,46.13,0,0,1,131.14,179.44Zm55.62-9-5.21-5.77,6.6-18.24,9.57-5.25,4.69,6.4-6.79,19.73Zm19.68-26.83-5.23-7.15L199,120.15l1.5-.4A46,46,0,0,1,207.82,143Zm-9.59-28.72-1.4.38L181,106.7l-.9-4.23A46.3,46.3,0,0,1,196.85,114.93ZM185.93,141.3l-14.83-8.85-3.22-16.35,10.44-4.49,15,9,2.13,15.47Zm-34.34,1.76-17.4-4.45-1.68-14.3,16.91-12.19,12.85,4.43L165.49,133ZM127,125.36,128.71,140l-7,8.48-6.22-2.69c0-.32,0-.64,0-1a46.25,46.25,0,0,1,4.92-20.72Zm56.85,60-2.3-.82,6.14-8.41,9-3.18.72,1.08A46.73,46.73,0,0,1,183.84,185.32Zm23.76-35.58a46,46,0,0,1-6.66,19.36Zm-43-38.31-12.45-4.29,1.42-7.8a46.32,46.32,0,0,1,20.35.94l1.4,6.53Zm-17-10.61-1.2,6.57L128.88,120l-5.47-1A46.06,46.06,0,0,1,147.6,100.82Z"/><path class="cls-5" d="M197.64,129.8l7.62,7,2.91-2.08a47.3,47.3,0,0,0-13-23.72l-3.39,1.68Z"/><polygon class="cls-6" points="167.47 131.97 185.08 138.26 194.8 130.13 189.18 113.82 171.38 107.46 160.49 114.93 167.47 131.97"/><path class="cls-5" d="M167.37,134.91c-.06,0-.1.08-.16.11a1.34,1.34,0,0,1-.27.07,1.23,1.23,0,0,1-.54,0l-12.11,13.07,8,15.83,18.47-3.45,3-19.76Z"/><polygon class="cls-6" points="132.47 145.39 152.02 146.47 164.76 132.74 157.78 115.69 142.8 113.62 127.51 129.98 132.47 145.39"/><path class="cls-6" d="M125.85,160,138,175.93l17.33.17L160,165.59l-8.27-16.33-19.47-1.08L125.87,160Z"/><polygon class="cls-6" points="203.66 139.15 196.39 132.45 186.66 140.58 183.52 161.11 191.16 166.82 200.63 161.22 203.66 139.15"/><polygon class="cls-6" points="181.66 163.22 162.5 166.79 157.88 177.23 166.6 186.6 183.71 180.98 189.32 168.94 181.66 163.22"/><path class="cls-5" d="M155.61,178.9l-17.22-.17-1.57,6.64a47.56,47.56,0,0,0,24.16,7l3.35-4.13Z"/><path class="cls-6" d="M184.84,183.55,167,189.41l-2.34,2.89a47.08,47.08,0,0,0,23.85-8.2Z"/><path class="cls-6" d="M208.73,137.78l-2.27,1.63-3.05,22.17,2,2A47.14,47.14,0,0,0,208.73,137.78Z"/><path class="cls-6" d="M135.77,177.64l-12.35-16.22a1.38,1.38,0,0,1-.27-1l-6.93-1.49a47.48,47.48,0,0,0,18.11,24.81Z"/><path class="cls-5" d="M201.71,163.84l-9.56,5.64L186.78,181l4.89.73a48,48,0,0,0,12.45-15.48Z"/><path class="cls-5" d="M115.44,155.89l8.47,1.82,6-11.12-5-15.56-8.79,0A47.26,47.26,0,0,0,115,154c.12.63.27,1.25.41,1.86Z"/><path class="cls-6" d="M125.31,128.23l15.55-16.64-.14-9.51a47.8,47.8,0,0,0-23.65,26.18Z"/><path class="cls-6" d="M172.23,104.79l17,6.08a.65.65,0,0,1,.16-.13L193,109a47.76,47.76,0,0,0-23.71-11.16Z"/><path class="cls-5" d="M143.65,110.91l14.77,2,11-7.55-3.41-8a47.43,47.43,0,0,0-22.53,3.4Z"/><path class="cls-3" d="M207.41,165.89a50.09,50.09,0,0,0,3.7-30.82s0,0,0,0h0A50.45,50.45,0,0,0,167.76,94.8a1.37,1.37,0,0,0-1.43-.21l-.08,0a50.39,50.39,0,1,0,40.36,72.9,1.62,1.62,0,0,0,.46-.29A1.39,1.39,0,0,0,207.41,165.89Zm-16.25.93-7.64-5.71,3.14-20.53,9.73-8.13,7.27,6.7-3,22.07ZM183.71,181,166.6,186.6l-8.72-9.37,4.62-10.44,19.16-3.57,7.66,5.72Zm-46.89,4.39,1.57-6.64,17.22.17,8.72,9.37L161,192.4A47.56,47.56,0,0,1,136.82,185.37Zm6-71.75,15,2.07,7,17.05L152,146.47l-19.55-1.08-5-15.41Zm28.58-6.16,17.8,6.36,5.62,16.31-9.72,8.13L167.47,132l-7-17Zm36.79,27.28-2.91,2.08-7.62-7-5.88-17.1,3.39-1.68A47.3,47.3,0,0,1,208.17,134.74Zm-27.4,25.79L162.3,164l-8-15.83,12.11-13.07a1.23,1.23,0,0,0,.54,0,1.34,1.34,0,0,0,.27-.07c.06,0,.1-.08.16-.11l16.43,5.86Zm-48.53-12.35,19.47,1.08L160,165.59l-4.66,10.51L138,175.93,125.85,160l0,0Zm74.22-8.77,2.27-1.63a47.14,47.14,0,0,1-3.35,25.79l-2-2ZM193,109l-3.54,1.75a.65.65,0,0,0-.16.13l-17-6.08-3-7A47.76,47.76,0,0,1,193,109ZM166,97.43l3.41,8-11,7.55-14.77-2-.15-10.08A47.43,47.43,0,0,1,166,97.43Zm-25.31,4.65.14,9.51-15.55,16.64-8.24,0A47.8,47.8,0,0,1,140.72,102.08Zm-24.6,29,8.79,0,5,15.56-6,11.12-8.47-1.82h0c-.14-.61-.29-1.23-.41-1.86A47.26,47.26,0,0,1,116.12,131.07Zm.1,27.85,6.93,1.49a1.38,1.38,0,0,0,.27,1l12.35,16.22-1.44,6.09A47.48,47.48,0,0,1,116.22,158.92Zm48.45,33.38,2.34-2.89,17.83-5.86,3.68.55a47.08,47.08,0,0,1-23.85,8.2Zm27-10.56-4.89-.73,5.37-11.53,9.56-5.64,2.41,2.42A48,48,0,0,1,191.67,181.74Z"/></symbol></defs><title>Sport</title><g id="Calque_6" data-name="Calque 6"><use width="213.57" height="197.66" transform="translate(5.08 26.84) scale(2.29 2.3)" xlink:href="#Nouveau_symbole_2"/></g></svg>