<svg id="Calque_1" data-name="Calque 1" xmlns="http://www.w3.org/2000/svg" xmlns:xlink="http://www.w3.org/1999/xlink" viewBox="0 0 500 500"><defs><style>.cls-1{fill:#f4cf20;}.cls-2{fill:#f42061;}.cls-3{fill:#fff;}.cls-4{fill:#404040;}.cls-5{fill:#f47b20;}</style><symbol id="Calendar_4" data-name="Calendar 4" viewBox="0 0 939.38 781.43"><path class="cls-1" d="M899.29,541.36c14.37,20.23,30.11,42.4,22.69,61.09-14.86,37.43-111.56,33-170.18,20.95-18.18-3.75-147.49-31.59-147.49-82,0-45.31,66-82,147.49-82C839.86,459.33,891.85,530.88,899.29,541.36Z"/><circle class="cls-1" cx="750.93" cy="353.89" r="85.53"/><circle class="cls-2" cx="187.05" cy="349.73" r="89.79"/><path class="cls-2" d="M369.67,612.35c15.6-22.64-60.17-151.78-171.18-155-80.87-2.37-138.13,63.35-152.72,80C26.26,559.62,7.46,581.1,14.35,599c13.49,35.11,116.12,32.21,184.14,18.33,4.11-.83,3.49-.75,7.4-1.53C309.94,595.08,359.39,627.27,369.67,612.35Z"/><ellipse class="cls-3" cx="470.81" cy="320.75" rx="119.59" ry="110.86"/><path class="cls-3" d="M684.6,607.64c5,17.75,21.22,74.94-8.73,117.49-32.51,46.19-98.4,45.23-206.83,43.63-109.12-1.6-182.56-1.94-212.07-52.36-23.88-40.8-9.41-89-3.5-108.76,25-83.26,111.78-161.11,215.57-161.11C575.13,446.53,661.09,524.58,684.6,607.64Z"/><path class="cls-4" d="M812.43,447.42a107.25,107.25,0,1,0-123,0A186,186,0,0,0,626,484.59a240.4,240.4,0,0,0-87-47.39,135.87,135.87,0,1,0-140.52,0A242.31,242.31,0,0,0,312.44,484a187.15,187.15,0,0,0-62.63-36.43,107.25,107.25,0,1,0-123,0A188.24,188.24,0,0,0,0,625.48v12.27a.8.8,0,0,0,.74.74H228.06a250.31,250.31,0,0,0-2,31.41v12.64a98.84,98.84,0,0,0,98.88,98.89H613a98.85,98.85,0,0,0,98.89-98.89V669.9a250.31,250.31,0,0,0-2-31.41H938.64a.8.8,0,0,0,.74-.74V625.48A189,189,0,0,0,812.43,447.42Zm-139-87.92a77.51,77.51,0,0,1,155,0c0,42.2-34,76.58-76,77.51h-3A77.39,77.39,0,0,1,673.4,359.5ZM362.26,320.84a106.13,106.13,0,1,1,112.26,106H462.25A106.28,106.28,0,0,1,362.26,320.84Zm-252,38.66a77.51,77.51,0,0,1,155,0c0,42.2-34,76.58-76,77.51h-3A77.51,77.51,0,0,1,110.22,359.5Zm123,249.07H30.11c8.36-79.18,75.28-141.26,156.5-141.82h2.23a157.2,157.2,0,0,1,101.3,37.73A244.19,244.19,0,0,0,233.26,608.57Zm448.51,74a69.25,69.25,0,0,1-69.15,69.15H324.53a69.25,69.25,0,0,1-69.15-69.15V669.91c0-115.43,92.19-209.85,206.87-213.2,2.05.19,4.28.19,6.32.19s4.28,0,6.32-.19c114.68,3.35,206.88,97.77,206.88,213.2Zm22.11-74a243.4,243.4,0,0,0-56.31-103.34,157.83,157.83,0,0,1,102.22-38.48H752c81.23.56,148.14,62.64,156.51,141.82Z"/><polygon class="cls-5" points="701.22 75.46 715.38 61.3 695.36 61.3 695.36 69.6 701.22 75.46"/><polygon class="cls-5" points="681.2 55.44 687.07 61.3 695.36 61.3 695.36 41.28 681.2 55.44"/><polygon class="cls-5" points="695.36 89.62 687.07 89.62 681.2 95.49 695.36 109.65 695.36 89.62"/><polygon class="cls-5" points="701.22 75.46 695.36 81.33 695.36 89.62 715.38 89.62 701.22 75.46"/><polygon class="cls-5" points="667.04 61.3 647.02 61.3 661.18 75.46 667.04 69.6 667.04 61.3"/><polygon class="cls-5" points="667.04 41.28 667.04 61.3 675.34 61.3 681.2 55.44 667.04 41.28"/><polygon class="cls-5" points="647.02 89.62 667.04 89.62 667.04 81.33 661.18 75.46 647.02 89.62"/><polygon class="cls-5" points="667.04 109.65 681.2 95.49 675.34 89.62 667.04 89.62 667.04 109.65"/><path class="cls-5" d="M749.92,16.76l-10-10a7.07,7.07,0,0,0-10,0L695.36,41.28v20h20l34.54-34.54A7.09,7.09,0,0,0,749.92,16.76Z"/><polygon class="cls-5" points="695.36 69.6 695.36 61.3 687.07 61.3 695.36 69.6"/><polygon class="cls-5" points="687.07 89.62 695.36 89.62 695.36 81.33 687.07 89.62"/><path class="cls-5" d="M715.38,89.62h-20v20l34.54,34.53a7.07,7.07,0,0,0,10,0l10-10a7.09,7.09,0,0,0,0-10Z"/><polygon class="cls-5" points="675.34 61.3 667.04 61.3 667.04 69.6 675.34 61.3"/><path class="cls-5" d="M647,61.31h20v-20L632.51,6.75a7.08,7.08,0,0,0-10,0l-10,10a7.09,7.09,0,0,0,0,10Z"/><path class="cls-5" d="M612.48,124.16a7.09,7.09,0,0,0,0,10l10,10a7.08,7.08,0,0,0,10,0L667,109.65v-20H647Z"/><polygon class="cls-5" points="667.04 81.33 667.04 89.62 675.34 89.62 667.04 81.33"/><polygon class="cls-5" points="695.36 81.33 701.22 75.46 695.36 69.6 695.36 81.33"/><path class="cls-5" d="M749.58,61.31h-34.2L701.22,75.46l14.16,14.16h34.2a7.08,7.08,0,0,0,7.08-7.08V68.39A7.08,7.08,0,0,0,749.58,61.31Z"/><polygon class="cls-5" points="667.04 69.6 661.18 75.46 667.04 81.33 667.04 69.6"/><path class="cls-5" d="M647,89.62l14.16-14.16L647,61.31h-34.2a7.07,7.07,0,0,0-7.08,7.08V82.54a7.07,7.07,0,0,0,7.08,7.08Z"/><path class="cls-5" d="M695.36,7.08A7.08,7.08,0,0,0,688.28,0H674.12A7.08,7.08,0,0,0,667,7.08v34.2L681.2,55.44l14.16-14.16Z"/><polygon class="cls-5" points="687.07 61.3 681.2 55.44 675.34 61.3 687.07 61.3"/><polygon class="cls-5" points="675.34 89.62 681.2 95.49 687.07 89.62 675.34 89.62"/><path class="cls-5" d="M681.2,95.49,667,109.65v34.2a7.08,7.08,0,0,0,7.08,7.08h14.16a7.08,7.08,0,0,0,7.08-7.08v-34.2Z"/></symbol></defs><title>Team</title><use width="939.38" height="781.43" transform="translate(0 35.59) scale(0.53 0.53)" xlink:href="#Calendar_4"/></svg>