<svg id="icones_niveau_1" data-name="icones niveau 1" xmlns="http://www.w3.org/2000/svg" xmlns:xlink="http://www.w3.org/1999/xlink" viewBox="0 0 500 500"><defs><style>.cls-1{fill:#fff;}.cls-2,.cls-4{fill:none;stroke:#404040;stroke-width:18px;}.cls-2{stroke-miterlimit:10;}.cls-3{fill:#fb5240;}.cls-4{stroke-linecap:round;stroke-linejoin:round;}</style><symbol id="UK_Flag" data-name="UK Flag" viewBox="0 0 412 405.03"><path class="cls-1" d="M403,341H61V68H403ZM58,68H20V397H58Zm8-51H13V65H66Z"/><line class="cls-2" x1="21" y1="405" x2="20" y2="65"/><line class="cls-2" x1="58" y1="405" x2="57" y2="65"/><circle class="cls-2" cx="40" cy="40" r="31"/><line class="cls-2" x1="73" y1="71" x2="222" y2="166"/><line class="cls-2" x1="58" y1="101" x2="207" y2="196"/><line class="cls-2" x1="254" y1="221" x2="403" y2="316"/><line class="cls-2" x1="225" y1="242" x2="382" y2="342"/><line class="cls-2" x1="221" y1="247" x2="72" y2="342"/><line class="cls-2" x1="207" y1="216" x2="58" y2="311"/><line class="cls-2" x1="384" y1="71" x2="235" y2="166"/><line class="cls-2" x1="407" y1="95" x2="258" y2="190"/><rect class="cls-3" x="191" y="76" width="67" height="265"/><rect class="cls-3" x="61" y="173" width="335" height="68"/><rect class="cls-4" x="58" y="71" width="345" height="270"/></symbol></defs><title>UK Flag</title><g id="Calque_13" data-name="Calque 13"><use width="412" height="405.03" transform="translate(44 47.49)" xlink:href="#UK_Flag"/></g></svg>