<svg id="Calque_1" data-name="Calque 1" xmlns="http://www.w3.org/2000/svg" xmlns:xlink="http://www.w3.org/1999/xlink" viewBox="0 0 500 500"><defs><style>.cls-1{fill:#fff;}.cls-2{fill:#404040;}.cls-3{fill:#f4cf20;}</style><symbol id="Calendar_5" data-name="Calendar 5" viewBox="0 0 787.35 787.35"><path class="cls-1" d="M778.62,392.77c0,212-169.58,383.81-378.76,383.81a373.67,373.67,0,0,1-219.92-71.29C161.59,692,63,754.49,47.28,738.18,30.62,720.88,97,624.62,83.83,604.4A385.64,385.64,0,0,1,21.09,392.77C21.09,180.79,190.67,9,399.86,9S778.62,180.79,778.62,392.77Z"/><path class="cls-2" d="M393.67,787.35a391.39,391.39,0,0,1-216.38-64.79L42,764.61a15.37,15.37,0,0,1-19.24-19.25l42-135.31A393.68,393.68,0,0,1,672,115.3,393.68,393.68,0,0,1,393.67,787.35Zm-213.9-97a15.44,15.44,0,0,1,8.7,2.7,360.78,360.78,0,0,0,205.2,63.58c200.12,0,362.92-162.8,362.92-362.92S593.79,30.76,393.67,30.76,30.76,193.56,30.76,393.67A360.86,360.86,0,0,0,94.32,598.88a15.39,15.39,0,0,1,2,13.27L60.78,726.56,175.2,691a15.18,15.18,0,0,1,4.57-.7Zm0,0"/><path class="cls-3" d="M305.44,238.36c-58.51,0-106.09,52.72-106.09,117.51,0,74,132.9,183.28,194.32,226.68C455.09,539.13,588,429.77,588,355.87c0-64.79-47.59-117.51-106.08-117.51-29.19,0-56.39,12.87-76.61,36.25a15.38,15.38,0,0,1-23.27,0c-20.22-23.38-47.42-36.25-76.6-36.25Zm0,0"/></symbol></defs><title>What Drives Us</title><use width="787.35" height="787.35" transform="translate(0.5 0.5) scale(0.63 0.63)" xlink:href="#Calendar_5"/></svg>