<svg xmlns="http://www.w3.org/2000/svg" xmlns:xlink="http://www.w3.org/1999/xlink" viewBox="0 0 258.11 377.17"><defs><style>.cls-1{fill:#fff;}</style><symbol id="ieg" data-name="ieg" viewBox="0 0 179.5 346.87"><path class="cls-1" d="M40.49,346.87,0,346.78A800.31,800.31,0,0,0,65.59,155.71,799.1,799.1,0,0,0,82.09,0a852.94,852.94,0,0,1-3.2,178.43A852.36,852.36,0,0,1,40.49,346.87Z"/><path class="cls-1" d="M179.5,346.63l-60.82.24a461.57,461.57,0,0,1-25.54-229A457.61,457.61,0,0,0,179.5,346.63Z"/><path class="cls-1" d="M127.36,33.76c1.4.06,2.8,0,4.2,0v.1h4.32c.36,0,.75,0,.91.41a.86.86,0,0,1-.33,1l-2.78,2.82c-2.28,2.3-4.58,4.58-6.82,6.91-1.46,1.52-1.63,3-.48,4.53a23.2,23.2,0,0,0,4.31,4.32,3.19,3.19,0,0,0,4.2,0,12.13,12.13,0,0,0,1.53-1.34l8.23-8.23c.36-.35.71-.91,1.29-.64s.38.82.38,1.3c0,2.47,0,5,0,7.43s.66,3,3,3c1.91,0,3.84,0,5.75,0,2.39-.07,3-.67,3-3.06,0-2.6,0-5.2,0-7.8,0-.36,0-.76.38-.93s.66.12.92.38l4.24,4.24c1.7,1.69,3.38,3.41,5.12,5.06s3.26,1.8,4.86.59a21.62,21.62,0,0,0,4.46-4.5,2.89,2.89,0,0,0-.1-3.86,14.51,14.51,0,0,0-1.28-1.43c-2.81-2.84-5.64-5.67-8.45-8.51-.35-.35-.93-.66-.66-1.28s.9-.41,1.39-.42c2.44,0,4.88,0,7.32,0,2.26,0,3.14-1,3.15-3.14V25.44c0-2.69-1-3.77-3.76-3.81-2.12,0-4.24,0-6.36,0-.58,0-1.47.16-1.66-.32s.56-1,1-1.48c2.92-3,5.88-5.89,8.77-8.87,1.77-1.83,1.76-3.39.06-5.26-.85-.95-1.77-1.85-2.69-2.74C172.4.61,170.75.6,168.34,3c-2.88,2.83-5.72,5.71-8.58,8.56-.35.35-.64.93-1.27.63s-.35-.83-.35-1.29c0-2.64,0-5.28,0-7.92-.05-2-.71-2.63-2.67-2.8a35.62,35.62,0,0,0-6.11,0c-2.27.17-2.95.89-3,3.17,0,2.44,0,4.87,0,7.31,0,.59.18,1.36-.44,1.63s-.92-.48-1.33-.82l-.17-.17c-2.92-2.9-5.81-5.83-8.76-8.71C134,.9,132.2.73,130.57,2.05a24.63,24.63,0,0,0-4.11,4.18,3,3,0,0,0,0,4.16,12.75,12.75,0,0,0,1.2,1.34c2.82,2.84,5.65,5.66,8.47,8.49.28.28.69.56.54,1s-.66.36-1.05.38-.88,0-1.32,0c-2.15,0-4.31,0-6.47.09s-3,1.08-3.06,3.21-.05,4.16,0,6.24C124.85,33,125.54,33.68,127.36,33.76Zm25-11c3.11.05,5,2.18,5,5.5-.06,2.86-2.17,4.79-5.2,4.75a4.77,4.77,0,0,1-5-5.22A4.85,4.85,0,0,1,152.36,22.74Z"/></symbol></defs><title>Fichier 4</title><g id="Calque_2" data-name="Calque 2"><g id="Calque_1-2" data-name="Calque 1"><path class="cls-1" d="M105.15,145.26l-.41-.24a.91.91,0,0,1,.36-1A2.54,2.54,0,0,1,105.15,145.26Z"/><path class="cls-1" d="M216.24,377v-7l41.52-.06v7Z"/><path class="cls-1" d="M257.73,360.33l-41.52.07,0-27.57h6.32l0,20.62,11.17,0,0-18.34h6.49l0,18.34,11,0,0-21.41h6.49Z"/><path class="cls-1" d="M237.47,294.46l17.65,0a19.62,19.62,0,0,1,2.21,5.77,32,32,0,0,1,.78,6.92,24.4,24.4,0,0,1-1.53,8.86,20.16,20.16,0,0,1-4.2,6.76A18,18,0,0,1,246,327a21.56,21.56,0,0,1-8.09,1.49,22.45,22.45,0,0,1-9-1.75,21.8,21.8,0,0,1-7-4.74,21.38,21.38,0,0,1-4.57-6.94,21.84,21.84,0,0,1-1.64-8.35,26.1,26.1,0,0,1,.2-3.1,27.19,27.19,0,0,1,.59-3.22,29.8,29.8,0,0,1,.94-3.08,14.43,14.43,0,0,1,1.27-2.68l5.7,3.41a8.7,8.7,0,0,0-.88,1.91c-.24.74-.46,1.51-.65,2.31a20.56,20.56,0,0,0-.42,2.36,17.22,17.22,0,0,0-.14,2.2,13.62,13.62,0,0,0,1.17,5.55,16,16,0,0,0,3.17,4.69,15.07,15.07,0,0,0,4.76,3.27,14.53,14.53,0,0,0,5.9,1.22,13.8,13.8,0,0,0,5.41-1.1,14.17,14.17,0,0,0,4.52-3A14.54,14.54,0,0,0,251.5,307a24.14,24.14,0,0,0-.21-2.85,16.08,16.08,0,0,0-.71-3.24h-7.07l0,7.75h-6Z"/><path class="cls-1" d="M257.6,273.64l-41.52.07,0-11.74a20.13,20.13,0,0,1,.9-6.23,13.41,13.41,0,0,1,2.61-4.79,11.71,11.71,0,0,1,4.21-3.06,14.29,14.29,0,0,1,5.64-1.09,17.76,17.76,0,0,1,5,.73,12.15,12.15,0,0,1,4.45,2.42,12.5,12.5,0,0,1,3.2,4.35,15.82,15.82,0,0,1,1.23,6.61v5.81l14.3,0Zm-20.86-6.91v-5.58a7.77,7.77,0,0,0-.74-3.59,6.74,6.74,0,0,0-4.2-3.47,8.08,8.08,0,0,0-2.19-.34,8.81,8.81,0,0,0-2.14.32,6.44,6.44,0,0,0-2.3,1.14,6.56,6.56,0,0,0-1.82,2.25,7.83,7.83,0,0,0-.73,3.65v5.64Z"/><path class="cls-1" d="M257.51,218.45l-1.42.6-2.51,1.06c-1,.42-2.07.88-3.27,1.37L246.58,223l0,14.3,10.94,4.54v6.89L255,247.67q-2-.84-5-2.12l-6.67-2.84-7.5-3.21c-2.54-1.1-5-2.16-7.49-3.2l-6.67-2.84-5-2.13-2.53-1.08,2.53-1.11,5-2.18,6.66-2.85,7.49-3.23q3.81-1.66,7.48-3.23l6.66-2.86,5-2.15,2.53-1.08Zm-16.77,16.49,0-9.46-9.9,4.12a4.81,4.81,0,0,1-.77.29c-.48.15-.9.26-1.28.34a11.28,11.28,0,0,1,1.28.34c.47.15.73.23.77.23Z"/><path class="cls-1" d="M257.49,206.77l-41.52.07,0-11.73a20.14,20.14,0,0,1,.91-6.24,13.41,13.41,0,0,1,2.61-4.79,11.62,11.62,0,0,1,4.21-3.06,14.29,14.29,0,0,1,5.64-1.09,17.22,17.22,0,0,1,3.41.34,15.08,15.08,0,0,1,3.31,1.08,11.87,11.87,0,0,1,5.25,4.77l3.89-2.45,3.84-2.43,4-2.54,4.44-2.85v8.37l-7.54,4.85c-2.37,1.53-4.62,3-6.74,4.4v6.38l14.29,0Zm-20.85-6.91v-5.58a7.77,7.77,0,0,0-.75-3.59,7,7,0,0,0-1.8-2.28,6.4,6.4,0,0,0-2.28-1.19,8.26,8.26,0,0,0-2.25-.34,9,9,0,0,0-2.19.32,6.44,6.44,0,0,0-2.3,1.14,6.65,6.65,0,0,0-1.82,2.25,8,8,0,0,0-.74,3.65v5.64Z"/><path class="cls-1" d="M215.92,170.61l0-7,41.53-.07v7Z"/><path class="cls-1" d="M218.19,129.54l5.7,2.5a38.48,38.48,0,0,0-1.36,4.73,20.4,20.4,0,0,0-.51,4.33,9.63,9.63,0,0,0,1.38,5.5,4.07,4.07,0,0,0,3.47,2,3.51,3.51,0,0,0,3-1.51,16.52,16.52,0,0,0,2-3.79c.6-1.52,1.22-3.17,1.84-4.93a23.25,23.25,0,0,1,2.41-4.93,13.09,13.09,0,0,1,3.76-3.8,10.42,10.42,0,0,1,5.81-1.52,12,12,0,0,1,5,1,10.22,10.22,0,0,1,3.82,3,14.24,14.24,0,0,1,2.49,5,25.7,25.7,0,0,1,.89,7.14,28.88,28.88,0,0,1-.33,4.56,27.37,27.37,0,0,1-.85,3.67,21.21,21.21,0,0,1-1.11,2.88,22.15,22.15,0,0,1-1.16,2.17l-6.1-3a22.44,22.44,0,0,0,2-5.13,19.24,19.24,0,0,0,.71-4.84,20.14,20.14,0,0,0-.23-2.65,13.46,13.46,0,0,0-.86-3.16,8,8,0,0,0-1.72-2.65,3.71,3.71,0,0,0-2.79-1.1,4.08,4.08,0,0,0-3.27,1.51,15.33,15.33,0,0,0-2.27,3.79c-.67,1.52-1.32,3.17-2,4.93a29.75,29.75,0,0,1-2.3,4.93,13.08,13.08,0,0,1-3.3,3.8,8,8,0,0,1-5,1.51,11,11,0,0,1-4.24-.84,10.73,10.73,0,0,1-3.74-2.59,13.31,13.31,0,0,1-2.68-4.32,16.69,16.69,0,0,1-1-6.13,24.22,24.22,0,0,1,.37-4.3c.24-1.38.51-2.63.81-3.73s.6-2,.88-2.73S218.15,129.7,218.19,129.54Z"/><path class="cls-1" d="M251.63,96.34l0-12.3h5.69l0,26.32-6.93-6.83q-3.33-3.3-6.47-5.85a37.75,37.75,0,0,0-6.1-4.13,12.12,12.12,0,0,0-5.7-1.55,7.24,7.24,0,0,0-3.19.66,7.39,7.39,0,0,0-2.25,1.62,7.07,7.07,0,0,0-1.33,2.11,5.61,5.61,0,0,0-.45,2.11,6.34,6.34,0,0,0,2.4,5.32,5.27,5.27,0,0,0,2.05,1,7.42,7.42,0,0,0,1.82.29,8.83,8.83,0,0,0,3.33-.61,7.67,7.67,0,0,0,2.53-1.68l3.6,3.47a5.54,5.54,0,0,1-1.74,2,12.63,12.63,0,0,1-2.53,1.46,15.39,15.39,0,0,1-2.73.92,11,11,0,0,1-2.45.31,12.13,12.13,0,0,1-4.44-.82,11,11,0,0,1-3.82-2.41,11.76,11.76,0,0,1-2.66-3.93,13.58,13.58,0,0,1-1-5.35,12.48,12.48,0,0,1,1-5.1A11.83,11.83,0,0,1,226.83,87a12.57,12.57,0,0,1,4.62-.89,17.41,17.41,0,0,1,5.29.82,27.33,27.33,0,0,1,5,2.22,40.71,40.71,0,0,1,4.93,3.26C248.36,93.61,250,94.94,251.63,96.34Z"/><path class="cls-1" d="M238.33,79.28A25.63,25.63,0,0,1,230,78a17.47,17.47,0,0,1-6-3.38,13.46,13.46,0,0,1-3.57-5,15.37,15.37,0,0,1-1.18-5.95,14.59,14.59,0,0,1,1.33-6.27,13.94,13.94,0,0,1,3.84-4.91,18.34,18.34,0,0,1,6.09-3.19,25.44,25.44,0,0,1,8.08-1.1,26.78,26.78,0,0,1,8.15,1.24,17.82,17.82,0,0,1,6,3.27,13.78,13.78,0,0,1,3.74,4.92,14.74,14.74,0,0,1,1.29,6.15,14.28,14.28,0,0,1-1.27,6,13.92,13.92,0,0,1-3.72,4.9,17.89,17.89,0,0,1-6.09,3.29A27,27,0,0,1,238.33,79.28Zm.16-5.87a18.26,18.26,0,0,0,5.18-.72,14.69,14.69,0,0,0,4.3-2,10.58,10.58,0,0,0,3-3,7,7,0,0,0,0-7.52A10.31,10.31,0,0,0,248,57.05,15.25,15.25,0,0,0,243.67,55a17.56,17.56,0,0,0-5.21-.77,24.49,24.49,0,0,0-4.19.44,16.14,16.14,0,0,0-4.44,1.49,10.3,10.3,0,0,0-3.52,2.91,7.27,7.27,0,0,0-1.45,4.64,7.36,7.36,0,0,0,1.55,4.84,11.29,11.29,0,0,0,3.67,3,16.31,16.31,0,0,0,4.48,1.5A22.93,22.93,0,0,0,238.49,73.41Z"/><path class="cls-1" d="M225.28,42.79h-5.63l0-9.17,37.59-.06v5.92l-32,0Z"/><path class="cls-1" d="M233,0a17.14,17.14,0,0,1,5.78,1,23,23,0,0,1,5.08,2.53A30.56,30.56,0,0,1,248.3,7a48.84,48.84,0,0,1,3.76,4.07c1.14,1.38,2.18,2.74,3.11,4.06s1.76,2.49,2.48,3.47c-.75.65-1.5,1.27-2.24,1.86l-2.25,1.8-2.08-3.11-2.34-3.44c-.78-1.14-1.53-2.16-2.23-3.07a16.08,16.08,0,0,0-1.74-2,2.62,2.62,0,0,1,.92,2.05,12.89,12.89,0,0,1-1,5,12.82,12.82,0,0,1-2.67,4.14,12.55,12.55,0,0,1-4,2.79,12,12,0,0,1-4.95,1,12.27,12.27,0,0,1-5-1,13.22,13.22,0,0,1-4.1-2.78,12.8,12.8,0,0,1-2.77-4.1,12.43,12.43,0,0,1-1-5A14,14,0,0,1,221,8.48a12.73,12.73,0,0,1,2.27-4.14,12.11,12.11,0,0,1,4-3.11A12.64,12.64,0,0,1,233,0Zm0,6.09a7.41,7.41,0,0,0-2.7.52A7.27,7.27,0,0,0,228.05,8a6.75,6.75,0,0,0-1.56,2.14,6.18,6.18,0,0,0-.57,2.65,6.34,6.34,0,0,0,.57,2.67,7.4,7.4,0,0,0,1.57,2.22,7.75,7.75,0,0,0,2.29,1.54,6.7,6.7,0,0,0,2.7.56,6.48,6.48,0,0,0,2.73-.57A7.11,7.11,0,0,0,238,17.71a7.3,7.3,0,0,0,1.48-2.23A6.68,6.68,0,0,0,240,12.8a6.31,6.31,0,0,0-.55-2.64A6.67,6.67,0,0,0,238,8a6.94,6.94,0,0,0-2.2-1.42A7.13,7.13,0,0,0,233,6.09Z"/><use width="179.5" height="346.87" transform="translate(0 0.6) scale(1.09)" xlink:href="#ieg"/></g></g></svg>